# xmcd
#
# Track frame offsets:
# 150
# 34159
# 53668
# 65562
# 75914
# 97647
# 105530
# 125780
# 145456
# 158464
# 167568
#
# Disc length: 2848 seconds
#
#
# Revision: 0
# Processed by: cddbd v1.5.1PL2 Copyright (c) Steve Scherf et al.
# Submitted via: FreeRIP 2.92 
#
DISCID=810b1e0b
DTITLE=Boris - Pink
DYEAR=2006
DGENRE=Fuzz Rock
TTITLE0=(parting)
TTITLE1=Pink
TTITLE2=(the woman on the screen)
TTITLE3=(It's no different, regardless)
TTITLE4=(Blackout)
TTITLE5=Electric
TTITLE6=(fake food)
TTITLE7=(painted with flame)
TTITLE8=(six to three)
TTITLE9=My Machine
TTITLE10=(when we're gone)
EXTD=
EXTT0=
EXTT1=
EXTT2=
EXTT3=
EXTT4=
EXTT5=
EXTT6=
EXTT7=
EXTT8=
EXTT9=
EXTT10=
PLAYORDER=
